<svg 
 xmlns="http://www.w3.org/2000/svg"
 xmlns:xlink="http://www.w3.org/1999/xlink"
 width="36px" height="36px">
<path fill-rule="evenodd"  fill="rgb(161, 176, 209)"
 d="M31.765,36.005 L4.235,36.005 C1.896,36.005 -0.000,34.096 -0.000,31.741 L-0.000,11.276 C-0.000,8.921 1.896,7.013 4.235,7.013 L31.765,7.013 C34.104,7.013 36.000,8.921 36.000,11.276 L36.000,31.741 C36.000,34.096 34.104,36.005 31.765,36.005 ZM33.000,13.000 C33.000,11.343 31.657,10.000 30.000,10.000 L6.000,10.000 C4.343,10.000 3.000,11.343 3.000,13.000 L3.000,30.000 C3.000,31.657 4.343,33.000 6.000,33.000 L30.000,33.000 C31.657,33.000 33.000,31.657 33.000,30.000 L33.000,13.000 ZM18.000,3.000 L13.263,6.991 L7.989,6.978 L14.661,1.198 C16.519,-0.412 19.454,-0.412 21.312,1.198 L27.984,6.978 L22.737,6.991 L18.000,3.000 Z"/>
<path fill-rule="evenodd"  fill="rgb(12, 106, 201)"
 d="M19.380,27.004 L8.628,27.004 C7.552,27.004 7.015,26.507 7.015,25.513 C7.015,24.519 7.552,24.022 8.628,24.022 L19.380,24.022 C20.455,24.022 20.992,24.519 20.992,25.513 C20.992,26.507 20.455,27.004 19.380,27.004 ZM27.396,19.025 L8.610,19.025 C7.546,19.025 7.015,18.523 7.015,17.519 C7.015,16.516 7.546,16.014 8.610,16.014 L27.396,16.014 C28.460,16.014 28.991,16.516 28.991,17.519 C28.991,18.523 28.460,19.025 27.396,19.025 Z"/>
</svg>