<svg 
 xmlns="http://www.w3.org/2000/svg"
 xmlns:xlink="http://www.w3.org/1999/xlink"
 width="40px" height="42px">
<path fill-rule="evenodd"  fill="rgb(161, 176, 209)"
 d="M20.001,0.003 C8.960,0.003 -0.009,9.087 -0.009,20.271 C-0.009,20.962 0.395,21.525 0.976,21.806 C1.203,21.934 1.482,22.011 1.759,22.011 L8.000,22.000 C8.909,22.000 9.516,21.269 9.516,20.347 C9.516,19.426 8.909,19.000 8.000,19.000 L3.000,19.000 C3.809,10.401 11.309,3.000 20.000,3.000 C29.222,3.000 37.000,10.739 37.000,20.000 C37.000,27.536 31.775,34.231 24.599,36.261 C23.943,34.941 22.567,34.000 21.000,34.000 L17.000,34.000 C14.802,34.000 13.000,35.792 13.000,38.000 C13.000,40.207 14.802,42.000 17.000,42.000 L21.000,42.000 C22.592,42.000 24.368,40.370 25.000,39.000 C25.076,39.000 24.899,39.025 25.000,39.000 C33.893,36.767 40.000,29.236 40.000,20.000 C39.975,8.887 31.017,0.003 20.001,0.003 L20.001,0.003 ZM20.871,38.997 L17.130,38.997 C16.503,38.997 15.996,38.548 15.996,37.993 C15.996,37.438 16.503,36.989 17.130,36.989 L20.871,36.989 C21.499,36.989 22.006,37.438 22.006,37.993 C21.982,38.548 21.475,38.997 20.871,38.997 L20.871,38.997 Z"/>
<path fill-rule="evenodd"  fill="rgb(12, 106, 201)"
 d="M19.000,30.000 C21.072,30.000 23.235,29.283 24.802,27.685 C25.433,27.050 25.433,25.984 24.802,25.350 C24.170,24.716 23.115,24.721 22.477,25.350 C20.279,27.519 17.772,27.538 15.630,25.350 C15.004,24.710 13.937,24.716 13.306,25.350 C12.674,25.984 12.674,27.050 13.306,27.685 C14.898,29.283 16.928,30.000 19.000,30.000 L19.000,30.000 Z"/>
</svg>